<svg xmlns="http://www.w3.org/2000/svg" width="1200" height="180" viewBox="0 0 1200 180" role="img" aria-labelledby="title desc">
<title id="title">Vishnu's projects and open-source contributions</title>
<desc id="desc">A rotating project rail for OpenReflex, agent-plane, secchecker, PigeonMQ, and an OWASP contribution.</desc>
<style>
  .slide{opacity:0}.s1{opacity:1;animation:s1 15s linear infinite}.s2{animation:s2 15s linear infinite}.s3{animation:s3 15s linear infinite}.s4{animation:s4 15s linear infinite}.s5{animation:s5 15s linear infinite}
  .d1,.d2,.d3,.d4,.d5{fill:#3B3B3B}.d1{animation:d1 15s linear infinite}.d2{animation:d2 15s linear infinite}.d3{animation:d3 15s linear infinite}.d4{animation:d4 15s linear infinite}.d5{animation:d5 15s linear infinite}
  @keyframes s1{0%,17%{opacity:1}20%,97%{opacity:0}100%{opacity:1}} @keyframes s2{0%,17%{opacity:0}20%,37%{opacity:1}40%,100%{opacity:0}} @keyframes s3{0%,37%{opacity:0}40%,57%{opacity:1}60%,100%{opacity:0}} @keyframes s4{0%,57%{opacity:0}60%,77%{opacity:1}80%,100%{opacity:0}} @keyframes s5{0%,77%{opacity:0}80%,97%{opacity:1}100%{opacity:0}}
  @keyframes d1{0%,17%,100%{fill:#7CC9C8}20%,97%{fill:#3B3B3B}} @keyframes d2{20%,37%{fill:#7CC9C8}0%,17%,40%,100%{fill:#3B3B3B}} @keyframes d3{40%,57%{fill:#7CC9C8}0%,37%,60%,100%{fill:#3B3B3B}} @keyframes d4{60%,77%{fill:#7CC9C8}0%,57%,80%,100%{fill:#3B3B3B}} @keyframes d5{80%,97%{fill:#7CC9C8}0%,77%,100%{fill:#3B3B3B}}
  @media (prefers-reduced-motion:reduce){.slide,.d1,.d2,.d3,.d4,.d5{animation:none!important}.slide{opacity:0}.s1{opacity:1}.d1{fill:#7CC9C8}}
</style>
<rect width="1200" height="180" fill="#0A0A0A"/><rect x="1" y="1" width="1198" height="178" fill="none" stroke="#2A2A2A"/>
<text x="38" y="34" fill="#8F8F89" font-size="12" font-family="ui-monospace,SFMono-Regular,Menlo,Consolas,monospace" letter-spacing="1.4">PROJECTS / CONTRIBUTIONS</text>
<line x1="38" y1="50" x2="1162" y2="50" stroke="#2A2A2A"/>

<g class="slide s1" transform="translate(48,62)">
  <g transform="translate(0,2) scale(.24)" fill="none" stroke="#7CC9C8" stroke-linecap="round"><path d="M32 23H145A78 78 0 0 1 157 181" stroke-width="30"/><path d="M154 187L253 263" stroke-width="28"/><path d="M100 107H85A62 62 0 0 0 23 169V258" stroke-width="26"/><circle cx="127" cy="105" r="27" fill="#7CC9C8" stroke="none"/><path d="M112 176H71V214" stroke-width="19"/><path d="M78 183L151 257" stroke-width="21"/></g>
  <text x="90" y="36" fill="#F7F7F4" font-size="26" font-weight="650" font-family="-apple-system,BlinkMacSystemFont,'Segoe UI',Arial,sans-serif">OpenReflex</text><text x="90" y="60" fill="#A0A0A0" font-size="14" font-family="ui-monospace,SFMono-Regular,Menlo,Consolas,monospace">muscle memory for coding agents</text><text x="90" y="84" fill="#7CC9C8" font-size="13" font-family="ui-monospace,SFMono-Regular,Menlo,Consolas,monospace">github.com/vishnu-77/openreflex</text>
</g>

<g class="slide s2" transform="translate(48,62)">
  <g transform="translate(7,5) scale(3.1)"><g fill="#F4F4EF"><polygon points="2.5,3 9,7 9,17 2.5,21" fill-opacity=".18"/><polygon points="21.5,3 15,7 15,17 21.5,21" fill-opacity=".36"/><rect x="1" y="11.1" width="17.5" height="1.8"/><polygon points="17.5,9.2 23,12 17.5,14.8"/><rect x="11" y="4.5" width="2" height="15"/></g></g>
  <text x="90" y="36" fill="#F7F7F4" font-size="26" font-weight="650" font-family="-apple-system,BlinkMacSystemFont,'Segoe UI',Arial,sans-serif">agent-plane</text><text x="90" y="60" fill="#A0A0A0" font-size="14" font-family="ui-monospace,SFMono-Regular,Menlo,Consolas,monospace">runtime boundaries for autonomous software</text><text x="90" y="84" fill="#7CC9C8" font-size="13" font-family="ui-monospace,SFMono-Regular,Menlo,Consolas,monospace">github.com/vishnu-77/agent-plane</text>
</g>

<g class="slide s3" transform="translate(48,62)">
  <g transform="translate(4,-2) scale(.31)"><rect width="256" height="256" rx="32" fill="#111" stroke="#383838" stroke-width="3"/><g fill="none" stroke="#F4F4EF" stroke-width="10" stroke-linecap="round"><path d="M48 92V62Q48 48 62 48H92"/><path d="M164 48H194Q208 48 208 62V92"/><path d="M208 164V194Q208 208 194 208H164"/><path d="M92 208H62Q48 208 48 194V164"/></g><g fill="#F4F4EF"><circle cx="128" cy="96" r="4.5"/><circle cx="96" cy="128" r="4.5"/><circle cx="160" cy="128" r="4.5"/><circle cx="128" cy="160" r="4.5"/><circle cx="112" cy="112" r="5"/><circle cx="128" cy="112" r="5"/><circle cx="144" cy="112" r="5"/><circle cx="112" cy="128" r="5"/><circle cx="144" cy="128" r="5"/><circle cx="112" cy="144" r="5"/><circle cx="128" cy="144" r="5"/><circle cx="144" cy="144" r="5"/><rect x="122" y="122" width="12" height="12" rx="1"/></g></g>
  <text x="90" y="36" fill="#F7F7F4" font-size="26" font-weight="650" font-family="-apple-system,BlinkMacSystemFont,'Segoe UI',Arial,sans-serif">secchecker</text><text x="90" y="60" fill="#A0A0A0" font-size="14" font-family="ui-monospace,SFMono-Regular,Menlo,Consolas,monospace">trust-boundary checks for AI projects</text><text x="90" y="84" fill="#7CC9C8" font-size="13" font-family="ui-monospace,SFMono-Regular,Menlo,Consolas,monospace">github.com/vishnu-77/secchecker</text>
</g>

<g class="slide s4" transform="translate(48,62)">
  <g transform="translate(0,0) scale(.14)"><polygon fill="#0e2b44" points="213,279 193,299 99,411 168,401 203,351"/><polygon fill="#0e2b44" points="217,273 263,273 263,271 230,254"/><polygon fill="#0e2b44" points="359,172 334,198 215,337 209,347 393,274"/><polygon fill="#0e2b44" points="142,86 198,173 165,206 204,183 222,210 249,203 264,256 266,256 260,200 337,176 337,174 229,192 145,87"/><polygon fill="#0e2b44" points="391,81 418,161 420,161 426,132 394,82"/><polygon fill="#0e2b44" points="444,72 441,75 429,128 433,127 462,103 462,99"/><polygon fill="#0e2b44" points="2,59 70,130 150,208 102,78"/><polygon fill="#0e2b44" points="87,2 88,5 342,159 352,163 284,76"/><polygon fill="#496881" points="205,282 64,375 63,378 116,388 205,285"/><polygon fill="#496881" points="266,274 215,275 205,346 210,343 249,295 264,280"/><polygon fill="#496881" points="448,116 453,120 479,126 465,104 459,106"/><polygon fill="#496881" points="385,73 335,133 334,137 360,171 392,266 395,268 418,163 410,145 389,78"/><polygon fill="#496881" points="76,3 153,212 266,272 272,270 347,183 353,173 347,173 261,200 268,258 267,267 250,205 246,204 222,211 205,185 158,212 170,197 196,175 196,171 121,57 80,5"/><polygon fill="#63829a" points="211,166 211,169 228,190 354,169 348,163 259,109 257,111 279,150 259,157"/><polygon fill="#63829a" points="390,71 391,76 418,118 427,128 440,71 426,71 425,69"/><polygon fill="#63829a" points="80,2 86,13 122,58 136,64 230,123 241,128 245,127 250,114 255,109 254,106"/><polygon fill="#e87972" points="450,150 460,171 468,181 471,181 479,154"/><polygon fill="#e87972" points="513,113 506,131 506,139 533,145 533,141 523,127 521,120"/><polygon fill="#e87972" points="507,107 481,121 482,129 473,127 452,138 453,142 494,150 495,141"/><polygon fill="#c96361" points="531,147 504,140 497,158 480,155 472,183 481,182 530,153"/></g>
  <text x="90" y="36" fill="#F7F7F4" font-size="26" font-weight="650" font-family="-apple-system,BlinkMacSystemFont,'Segoe UI',Arial,sans-serif">PigeonMQ</text><text x="90" y="60" fill="#A0A0A0" font-size="14" font-family="ui-monospace,SFMono-Regular,Menlo,Consolas,monospace">contract-native messaging</text><text x="90" y="84" fill="#7CC9C8" font-size="13" font-family="ui-monospace,SFMono-Regular,Menlo,Consolas,monospace">github.com/vishnu-77/pigeon</text>
</g>

<g class="slide s5" transform="translate(48,62)">
  <rect x="4" y="2" width="70" height="70" fill="none" stroke="#F4F4EF"/><text x="39" y="45" text-anchor="middle" fill="#F4F4EF" font-size="19" font-weight="700" font-family="-apple-system,BlinkMacSystemFont,'Segoe UI',Arial,sans-serif">OWASP®</text>
  <text x="90" y="36" fill="#F7F7F4" font-size="26" font-weight="650" font-family="-apple-system,BlinkMacSystemFont,'Segoe UI',Arial,sans-serif">OWASP contributor</text><text x="90" y="60" fill="#A0A0A0" font-size="14" font-family="ui-monospace,SFMono-Regular,Menlo,Consolas,monospace">AI Security &amp; Privacy Guide contribution</text><text x="90" y="84" fill="#7CC9C8" font-size="13" font-family="ui-monospace,SFMono-Regular,Menlo,Consolas,monospace">OWASP/www-project-ai-security-and-privacy-guide · PR #213</text>
</g>

<g transform="translate(1040,146)"><circle class="d1" cx="0" cy="0" r="4"/><circle class="d2" cx="22" cy="0" r="4"/><circle class="d3" cx="44" cy="0" r="4"/><circle class="d4" cx="66" cy="0" r="4"/><circle class="d5" cx="88" cy="0" r="4"/></g>
</svg>